<svg width="19" height="20" viewBox="0 0 19 20" fill="none" xmlns="http://www.w3.org/2000/svg">
    <g opacity="0.3">
        <path d="M16.6296 13.074C15.7271 11.704 15.2572 10.0943 15.2808 8.45383V8.28271C15.2798 7.34879 15.0471 6.4297 14.6036 5.60778C14.1602 4.78585 13.5198 4.08675 12.7398 3.57308C11.9598 3.05942 11.0646 2.74722 10.1344 2.66446C9.20412 2.5817 8.26787 2.73096 7.40946 3.09888C6.40476 3.51427 5.54803 4.22193 4.95036 5.1301C4.3527 6.03827 4.04166 7.10505 4.05758 8.19212V8.26258C4.06413 10.0198 3.50277 11.7322 2.45714 13.1444L1.7928 14.0806C1.52389 14.4487 1.37933 14.893 1.38011 15.3488C1.38011 15.9148 1.60493 16.4576 2.00512 16.8578C2.40531 17.2579 2.94808 17.4828 3.51404 17.4828H15.5426C15.8228 17.4828 16.1003 17.4276 16.3592 17.3203C16.6181 17.2131 16.8533 17.0559 17.0515 16.8578C17.2496 16.6596 17.4068 16.4244 17.514 16.1655C17.6213 15.9066 17.6765 15.6291 17.6765 15.3488V15.2884C17.6789 14.8587 17.5527 14.438 17.3141 14.0806L16.6296 13.074Z"
              fill="#475569"/>
    </g>
    <path d="M7.57975 18.4407C7.69565 18.8672 7.94866 19.2436 8.29975 19.512C8.65084 19.7805 9.0805 19.9259 9.52243 19.9259C9.96437 19.9259 10.394 19.7805 10.7451 19.512C11.0962 19.2436 11.3492 18.8672 11.4651 18.4407H7.57975Z"
          fill="#475569"/>
    <path d="M10.2676 2.69761V0.754928C10.2676 0.554709 10.1881 0.36269 10.0465 0.221113C9.90495 0.0795367 9.71294 0 9.51272 0C9.3125 0 9.12048 0.0795367 8.9789 0.221113C8.83733 0.36269 8.75779 0.554709 8.75779 0.754928V2.65735C8.75328 2.684 8.75328 2.71122 8.75779 2.73787C9.25699 2.65678 9.76483 2.64324 10.2676 2.69761Z"
          fill="#475569"/>
    <path d="M0.836176 9.04729C0.654889 9.04895 0.479219 8.98444 0.342095 8.86584C0.20497 8.74725 0.115806 8.58271 0.0913139 8.40308C-0.107788 7.20914 0.0200878 5.98356 0.461369 4.85644C0.902649 3.72931 1.64087 2.74269 2.59767 2.00129C2.76586 1.8865 2.97276 1.84322 3.17285 1.88098C3.37294 1.91873 3.54985 2.03442 3.66464 2.20261C3.77943 2.37079 3.82271 2.57769 3.78496 2.77778C3.7472 2.97788 3.63151 3.15478 3.46332 3.26957C2.74069 3.84889 2.1854 4.61025 1.85458 5.47534C1.52376 6.34043 1.42934 7.27802 1.58104 8.1917C1.59519 8.28965 1.58967 8.38943 1.56483 8.48522C1.53998 8.58101 1.49629 8.67089 1.43631 8.74961C1.37634 8.82832 1.30128 8.8943 1.21552 8.94368C1.12976 8.99307 1.03502 9.02486 0.936833 9.03722L0.836176 9.04729Z"
          fill="#475569"/>
    <path d="M18.1698 9.04728H18.0691C17.9709 9.03493 17.8762 9.00313 17.7904 8.95375C17.7047 8.90436 17.6296 8.83839 17.5696 8.75967C17.5096 8.68095 17.466 8.59107 17.4411 8.49528C17.4163 8.39949 17.4108 8.29971 17.4249 8.20176C17.5753 7.28664 17.4803 6.348 17.1496 5.48155C16.819 4.6151 16.2644 3.85183 15.5426 3.26957C15.4593 3.21273 15.3881 3.14004 15.3329 3.05566C15.2777 2.97128 15.2397 2.87686 15.221 2.77778C15.2023 2.6787 15.2033 2.57692 15.2239 2.47823C15.2446 2.37954 15.2845 2.28588 15.3413 2.2026C15.4561 2.03442 15.633 1.91873 15.8331 1.88097C15.9322 1.86228 16.034 1.86328 16.1326 1.88393C16.2313 1.90457 16.325 1.94445 16.4083 2.00129C17.3584 2.7392 18.0925 3.7192 18.5335 4.83849C18.9744 5.95778 19.1061 7.17512 18.9146 8.36282C18.8994 8.54972 18.8143 8.72401 18.6762 8.85089C18.5381 8.97777 18.3573 9.0479 18.1698 9.04728Z"
          fill="#475569"/>
</svg>
