<svg width="19" height="20" viewBox="0 0 19 20" fill="none" xmlns="http://www.w3.org/2000/svg">
    <path opacity="0.3"
          d="M0 8.89031V14.5803C0 16.0178 0.571034 17.3964 1.58748 18.4128C2.60393 19.4293 3.98253 20.0003 5.42 20.0003H12.98C13.6918 20.0003 14.3966 19.8601 15.0541 19.5877C15.7117 19.3154 16.3092 18.9161 16.8125 18.4128C17.3158 17.9095 17.715 17.312 17.9874 16.6545C18.2598 15.9969 18.4 15.2921 18.4 14.5803V8.89031C18.4 8.67284 18.3136 8.46426 18.1598 8.31048C18.006 8.15671 17.7975 8.07031 17.58 8.07031H0.82C0.602522 8.07031 0.393952 8.15671 0.240172 8.31048C0.0863926 8.46426 0 8.67284 0 8.89031Z"
          fill="#475569"/>
    <path d="M18.0495 5.58C18.0961 5.70493 18.1119 5.83925 18.0956 5.97159C18.0793 6.10392 18.0313 6.23038 17.9558 6.34025C17.8803 6.45013 17.7794 6.54019 17.6616 6.60281C17.5439 6.66543 17.4128 6.69877 17.2795 6.7H1.27952C1.11654 6.70115 0.955748 6.66245 0.811144 6.58726C0.666539 6.51207 0.542503 6.40268 0.449834 6.26861C0.357164 6.13453 0.29867 5.97984 0.279444 5.81799C0.260217 5.65615 0.28084 5.49205 0.339518 5.34C0.642864 4.61264 1.10034 3.95973 1.68042 3.42627C2.26049 2.89281 2.94936 2.4915 3.69952 2.25V0.69C3.69819 0.599863 3.7148 0.510362 3.74838 0.426703C3.78196 0.343044 3.83184 0.266897 3.89512 0.20269C3.95839 0.138483 4.0338 0.0874985 4.11696 0.0527017C4.20012 0.0179049 4.28937 -9.74424e-06 4.37952 3.97622e-09C4.56252 3.97622e-09 4.73802 0.0726961 4.86742 0.202096C4.99682 0.331496 5.06952 0.507001 5.06952 0.69V2C5.19952 2 5.27952 2 5.38952 2H8.65952V0.69C8.65952 0.507001 8.73221 0.331496 8.86161 0.202096C8.99101 0.0726961 9.16652 3.97622e-09 9.34952 3.97622e-09C9.53252 3.97622e-09 9.70802 0.0726961 9.83742 0.202096C9.96682 0.331496 10.0395 0.507001 10.0395 0.69V2H12.9395C13.0495 2 13.1495 2 13.2595 2V0.69C13.2582 0.599863 13.2748 0.510362 13.3084 0.426703C13.342 0.343044 13.3918 0.266897 13.4551 0.20269C13.5184 0.138483 13.5938 0.0874985 13.677 0.0527017C13.7601 0.0179049 13.8494 -9.74424e-06 13.9395 3.97622e-09C14.1225 3.97622e-09 14.298 0.0726961 14.4274 0.202096C14.5568 0.331496 14.6295 0.507001 14.6295 0.69V2.25C15.4145 2.50985 16.1303 2.94461 16.7227 3.52146C17.3151 4.09832 17.7688 4.8022 18.0495 5.58ZM5.92952 11C5.76184 11.002 5.5985 11.0535 5.46004 11.1481C5.32158 11.2427 5.21419 11.3761 5.15139 11.5316C5.08858 11.6871 5.07317 11.8577 5.10709 12.0219C5.14101 12.1861 5.22274 12.3366 5.342 12.4545C5.46127 12.5724 5.61273 12.6523 5.77734 12.6843C5.94194 12.7163 6.11233 12.6989 6.26707 12.6343C6.4218 12.5697 6.55397 12.4607 6.64693 12.3212C6.7399 12.1816 6.78951 12.0177 6.78952 11.85C6.78689 11.6237 6.69512 11.4075 6.53412 11.2483C6.37312 11.0892 6.15588 11 5.92952 11ZM9.13952 11C8.97184 11.002 8.8085 11.0535 8.67004 11.1481C8.53158 11.2427 8.42419 11.3761 8.36139 11.5316C8.29858 11.6871 8.28317 11.8577 8.31709 12.0219C8.35101 12.1861 8.43274 12.3366 8.552 12.4545C8.67127 12.5724 8.82273 12.6523 8.98734 12.6843C9.15194 12.7163 9.32233 12.6989 9.47707 12.6343C9.6318 12.5697 9.76397 12.4607 9.85693 12.3212C9.9499 12.1816 9.99951 12.0177 9.99952 11.85C9.99689 11.6237 9.90512 11.4075 9.74412 11.2483C9.58313 11.0892 9.36588 11 9.13952 11ZM12.3795 11C12.2679 11 12.1574 11.022 12.0542 11.0647C11.9511 11.1074 11.8574 11.17 11.7785 11.249C11.6995 11.3279 11.6369 11.4216 11.5942 11.5247C11.5515 11.6278 11.5295 11.7384 11.5295 11.85C11.5295 11.9616 11.5515 12.0722 11.5942 12.1753C11.6369 12.2784 11.6995 12.3721 11.7785 12.451C11.8574 12.53 11.9511 12.5926 12.0542 12.6353C12.1574 12.678 12.2679 12.7 12.3795 12.7C12.4911 12.7 12.6017 12.678 12.7048 12.6353C12.8079 12.5926 12.9016 12.53 12.9806 12.451C13.0595 12.3721 13.1221 12.2784 13.1648 12.1753C13.2075 12.0722 13.2295 11.9616 13.2295 11.85C13.2295 11.7384 13.2075 11.6278 13.1648 11.5247C13.1221 11.4216 13.0595 11.3279 12.9806 11.249C12.9016 11.17 12.8079 11.1074 12.7048 11.0647C12.6017 11.022 12.4911 11 12.3795 11ZM5.91952 14.2C5.75184 14.202 5.5885 14.2535 5.45004 14.3481C5.31158 14.4427 5.20419 14.5761 5.14139 14.7316C5.07858 14.8871 5.06317 15.0577 5.09709 15.2219C5.13101 15.3861 5.21274 15.5366 5.332 15.6545C5.45127 15.7724 5.60273 15.8523 5.76733 15.8843C5.93194 15.9163 6.10233 15.8989 6.25707 15.8343C6.4118 15.7697 6.54397 15.6607 6.63693 15.5212C6.7299 15.3816 6.77951 15.2177 6.77952 15.05C6.77953 14.9375 6.75721 14.8262 6.71387 14.7224C6.67053 14.6186 6.60703 14.5245 6.52703 14.4454C6.44704 14.3663 6.35216 14.3039 6.24787 14.2618C6.14359 14.2197 6.03198 14.1987 5.91952 14.2ZM9.12952 14.2C8.96184 14.202 8.7985 14.2535 8.66004 14.3481C8.52158 14.4427 8.41419 14.5761 8.35139 14.7316C8.28858 14.8871 8.27317 15.0577 8.30709 15.2219C8.34101 15.3861 8.42274 15.5366 8.542 15.6545C8.66127 15.7724 8.81273 15.8523 8.97733 15.8843C9.14194 15.9163 9.31233 15.8989 9.46707 15.8343C9.6218 15.7697 9.75397 15.6607 9.84693 15.5212C9.9399 15.3816 9.98951 15.2177 9.98952 15.05C9.98953 14.9375 9.96721 14.8262 9.92387 14.7224C9.88053 14.6186 9.81703 14.5245 9.73703 14.4454C9.65704 14.3663 9.56215 14.3039 9.45787 14.2618C9.35359 14.2197 9.24198 14.1987 9.12952 14.2ZM12.3595 14.2C12.1923 14.2039 12.03 14.2571 11.8929 14.3529C11.7557 14.4486 11.6499 14.5827 11.5886 14.7383C11.5273 14.894 11.5133 15.0642 11.5484 15.2277C11.5834 15.3913 11.6659 15.5409 11.7855 15.6578C11.9051 15.7746 12.0566 15.8536 12.2209 15.8848C12.3852 15.916 12.5551 15.8981 12.7093 15.8332C12.8634 15.7683 12.995 15.6594 13.0875 15.5201C13.1801 15.3808 13.2295 15.2173 13.2295 15.05C13.2282 14.9371 13.2047 14.8255 13.1602 14.7216C13.1158 14.6178 13.0514 14.5237 12.9706 14.4448C12.8898 14.3659 12.7942 14.3036 12.6894 14.2616C12.5845 14.2196 12.4725 14.1987 12.3595 14.2Z"
          fill="#475569"/>
</svg>
