<svg width="30" height="31" viewBox="0 0 30 31" fill="none" xmlns="http://www.w3.org/2000/svg">
    <rect y="0.5" width="30" height="30" rx="6" fill="#F1F1F2"/>
    <path d="M14.9997 22.8345C14.7487 22.833 14.5017 22.7718 14.2791 22.6558C14.0565 22.5399 13.8647 22.3726 13.7197 22.1678L12.9997 21.1078C12.9614 21.0529 12.9106 21.0079 12.8515 20.9766C12.7924 20.9453 12.7266 20.9286 12.6597 20.9278H11.573C10.5811 20.9278 9.62981 20.5338 8.92843 19.8324C8.22704 19.131 7.83301 18.1797 7.83301 17.1878V12.2478C7.83301 11.2559 8.22704 10.3046 8.92843 9.60323C9.62981 8.90185 10.5811 8.50781 11.573 8.50781H18.4263C18.9175 8.50781 19.4038 8.60455 19.8576 8.7925C20.3113 8.98046 20.7236 9.25594 21.0709 9.60323C21.4182 9.95052 21.6937 10.3628 21.8817 10.8166C22.0696 11.2703 22.1663 11.7567 22.1663 12.2478V17.1878C22.1663 17.679 22.0696 18.1653 21.8817 18.619C21.6937 19.0728 21.4182 19.4851 21.0709 19.8324C20.7236 20.1797 20.3113 20.4552 19.8576 20.6431C19.4038 20.8311 18.9175 20.9278 18.4263 20.9278H17.3663C17.2994 20.9286 17.2337 20.9453 17.1745 20.9766C17.1154 21.0079 17.0646 21.0529 17.0263 21.1078L16.2797 22.1678C16.1346 22.3726 15.9428 22.5399 15.7202 22.6558C15.4976 22.7718 15.2506 22.833 14.9997 22.8345ZM11.573 9.50115C11.2126 9.50114 10.8558 9.57224 10.5229 9.71035C10.19 9.84847 9.88769 10.0509 9.63317 10.306C9.37865 10.5612 9.17697 10.864 9.03966 11.1972C8.90236 11.5304 8.83213 11.8874 8.83301 12.2478V17.1878C8.83301 17.9145 9.12169 18.6114 9.63554 19.1253C10.1494 19.6391 10.8463 19.9278 11.573 19.9278H12.633C12.8608 19.9285 13.0852 19.9839 13.2871 20.0895C13.489 20.1951 13.6625 20.3477 13.793 20.5345L14.533 21.5878C14.5877 21.6597 14.6583 21.7179 14.7393 21.758C14.8202 21.7981 14.9093 21.8189 14.9997 21.8189C15.09 21.8189 15.1791 21.7981 15.2601 21.758C15.341 21.7179 15.4116 21.6597 15.4663 21.5878L16.2063 20.5345C16.3368 20.3477 16.5104 20.1951 16.7123 20.0895C16.9142 19.9839 17.1385 19.9285 17.3663 19.9278H18.4263C19.153 19.9278 19.85 19.6391 20.3638 19.1253C20.8777 18.6114 21.1663 17.9145 21.1663 17.1878V12.2478C21.1672 11.8874 21.097 11.5304 20.9597 11.1972C20.8224 10.864 20.6207 10.5612 20.3662 10.306C20.1117 10.0509 19.8093 9.84847 19.4764 9.71035C19.1436 9.57224 18.7867 9.50114 18.4263 9.50115H11.573ZM18.673 13.4211C18.6713 13.2891 18.618 13.1629 18.5247 13.0695C18.4313 12.9761 18.3051 12.9229 18.173 12.9211H11.8263C11.6937 12.9211 11.5666 12.9738 11.4728 13.0676C11.379 13.1614 11.3263 13.2885 11.3263 13.4211C11.3263 13.5538 11.379 13.6809 11.4728 13.7747C11.5666 13.8685 11.6937 13.9211 11.8263 13.9211H18.173C18.3051 13.9194 18.4313 13.8662 18.5247 13.7728C18.618 13.6794 18.6713 13.5532 18.673 13.4211ZM17.613 16.7545C17.613 16.6219 17.5603 16.4947 17.4666 16.4009C17.3728 16.3072 17.2456 16.2545 17.113 16.2545H12.8863C12.7537 16.2545 12.6266 16.3072 12.5328 16.4009C12.439 16.4947 12.3863 16.6219 12.3863 16.7545C12.3863 16.8871 12.439 17.0143 12.5328 17.108C12.6266 17.2018 12.7537 17.2545 12.8863 17.2545H17.113C17.2456 17.2545 17.3728 17.2018 17.4666 17.108C17.5603 17.0143 17.613 16.8871 17.613 16.7545Z"
          fill="#A1A5B7"/>
</svg>
