<svg width="21" height="22" viewBox="0 0 21 22" fill="none" xmlns="http://www.w3.org/2000/svg">
    <path d="M15.1028 10.9999C15.1035 11.1205 15.0815 11.2401 15.038 11.3518C14.9946 11.4635 14.9307 11.5651 14.8498 11.6507L9.61551 17.1507C9.53441 17.2366 9.43793 17.3048 9.33162 17.3514C9.22531 17.3979 9.11129 17.4219 8.99612 17.4219C8.88096 17.4219 8.76693 17.3979 8.66062 17.3514C8.55432 17.3048 8.45783 17.2366 8.37673 17.1507C8.21425 16.979 8.12305 16.7466 8.12305 16.5045C8.12305 16.2623 8.21425 16.03 8.37673 15.8582L13.0004 10.9999L8.37673 6.15073C8.21425 5.97898 8.12305 5.74665 8.12305 5.50448C8.12305 5.26231 8.21425 5.02997 8.37673 4.85823C8.45783 4.77231 8.55432 4.70411 8.66062 4.65758C8.76693 4.61104 8.88096 4.58708 8.99612 4.58708C9.11129 4.58708 9.22531 4.61104 9.33162 4.65758C9.43793 4.70411 9.53441 4.77231 9.61551 4.85823L14.8498 10.3582C15.011 10.529 15.1018 10.7594 15.1028 10.9999Z"
          fill="white"/>
</svg>
