<svg width="34" height="35" viewBox="0 0 34 35" fill="none" xmlns="http://www.w3.org/2000/svg">
    <path opacity="0.3"
          d="M22.9355 3.33203H11.0638C6.51808 3.33203 2.83301 7.0171 2.83301 11.5629V23.4345C2.83301 27.9803 6.51808 31.6654 11.0638 31.6654H22.9355C27.4813 31.6654 31.1663 27.9803 31.1663 23.4345V11.5629C31.1663 7.0171 27.4813 3.33203 22.9355 3.33203Z"
          fill="#CBD5E1"/>
    <path d="M19.3659 23.9728C19.175 23.9721 18.9863 23.9328 18.811 23.8573C18.6358 23.7818 18.4775 23.6717 18.3459 23.5336L13.3875 18.3628C13.1237 18.0973 12.9756 17.7383 12.9756 17.364C12.9756 16.9898 13.1237 16.6307 13.3875 16.3653L18.5442 11.4211C18.8147 11.16 19.1779 11.017 19.5538 11.0237C19.9298 11.0303 20.2877 11.186 20.5488 11.4565C20.8099 11.7271 20.9529 12.0902 20.9462 12.4662C20.9396 12.8421 20.7839 13.2 20.5134 13.4611L16.4192 17.4986L20.3859 21.6494C20.6497 21.9149 20.7978 22.2739 20.7978 22.6482C20.7978 23.0225 20.6497 23.3815 20.3859 23.6469C20.1016 23.8848 19.7354 24.0018 19.3659 23.9728Z"
          fill="#CBD5E1"/>
</svg>
