<svg width="18" height="18" viewBox="0 0 18 18" fill="none" xmlns="http://www.w3.org/2000/svg">
    <path opacity="0.3"
          d="M16.1251 14.5664L13.7476 12.3164C13.2955 12.8984 12.7538 13.4047 12.1426 13.8164L14.5876 16.1414C14.6904 16.2615 14.8175 16.3584 14.9605 16.4257C15.1036 16.493 15.2592 16.5292 15.4173 16.5319C15.5753 16.5347 15.7322 16.5038 15.8774 16.4414C16.0227 16.379 16.153 16.2866 16.2599 16.1701C16.3668 16.0536 16.4477 15.9158 16.4974 15.7657C16.547 15.6156 16.5643 15.4567 16.548 15.2995C16.5317 15.1422 16.4822 14.9902 16.4029 14.8535C16.3235 14.7168 16.216 14.5985 16.0876 14.5064L16.1251 14.5664Z"
          fill="white"/>
    <path d="M8.35547 1.5C7.02045 1.5 5.7154 1.89588 4.60537 2.63758C3.49534 3.37928 2.63018 4.43349 2.11928 5.66689C1.60839 6.90029 1.47472 8.25749 1.73517 9.56686C1.99562 10.8762 2.6385 12.079 3.5825 13.023C4.52651 13.967 5.72924 14.6099 7.03861 14.8703C8.34798 15.1308 9.70518 14.9971 10.9386 14.4862C12.172 13.9753 13.2262 13.1101 13.9679 12.0001C14.7096 10.8901 15.1055 9.58502 15.1055 8.25C15.1055 6.45979 14.3943 4.7429 13.1284 3.47703C11.8626 2.21116 10.1457 1.5 8.35547 1.5ZM8.35547 13.02C7.41386 13.02 6.49338 12.7409 5.71035 12.2179C4.92732 11.6949 4.3169 10.9516 3.95622 10.0818C3.59554 9.21196 3.50079 8.25477 3.68394 7.33114C3.8671 6.40751 4.31994 5.5589 4.98523 4.89255C5.65053 4.22621 6.49843 3.77203 7.42176 3.58743C8.3451 3.40282 9.30245 3.49606 10.1728 3.85537C11.0432 4.21469 11.7875 4.82394 12.3117 5.60614C12.8359 6.38835 13.1165 7.30839 13.118 8.25C13.1199 8.87633 12.9982 9.49688 12.7596 10.076C12.5211 10.6551 12.1705 11.1814 11.7279 11.6247C11.2854 12.0679 10.7597 12.4193 10.1809 12.6588C9.60216 12.8982 8.9818 13.021 8.35547 13.02Z"
          fill="white"/>
</svg>
