<svg width="22" height="22" viewBox="0 0 22 22" fill="none" xmlns="http://www.w3.org/2000/svg">
    <path d="M16.5453 1.83222H8.99199C8.04384 1.83222 7.13453 2.20887 6.46409 2.87931C5.79364 3.54976 5.41699 4.45907 5.41699 5.40722V5.49889H13.007C13.9551 5.49889 14.8645 5.87554 15.5349 6.54598C16.2053 7.21642 16.582 8.12574 16.582 9.07389V14.4272C17.0534 14.4297 17.5205 14.3386 17.9565 14.1593C18.3924 13.9801 18.7885 13.7162 19.1218 13.3829C19.4551 13.0496 19.719 12.6535 19.8983 12.2175C20.0775 11.7816 20.1686 11.3144 20.1662 10.8431V5.38889C20.1626 4.91742 20.066 4.4513 19.882 4.01723C19.6979 3.58315 19.4301 3.18964 19.0937 2.85925C18.7574 2.52886 18.3591 2.26808 17.9218 2.09185C17.4845 1.91561 17.0168 1.82738 16.5453 1.83222Z"
          fill="#7E8299"/>
    <g opacity="0.3">
        <path d="M13.0073 5.5H5.4998C4.5524 5.50242 3.64449 5.87985 2.97457 6.54977C2.30465 7.21969 1.92722 8.12759 1.9248 9.075V14.5292C1.93205 15.4734 2.3116 16.3766 2.981 17.0426C3.6504 17.7085 4.55556 18.0834 5.4998 18.0858H6.61814C6.78057 18.0837 6.941 18.122 7.08499 18.1972C7.22899 18.2724 7.35206 18.3821 7.44314 18.5167L8.2498 19.6808C8.35791 19.8359 8.50188 19.9625 8.66947 20.05C8.83705 20.1374 9.02328 20.1831 9.2123 20.1831C9.40133 20.1831 9.58756 20.1374 9.75514 20.05C9.92272 19.9625 10.0667 19.8359 10.1748 19.6808L10.9998 18.5167C11.0909 18.3821 11.214 18.2724 11.3579 18.1972C11.5019 18.122 11.6624 18.0837 11.8248 18.0858H12.989C13.9371 18.0858 14.8464 17.7092 15.5169 17.0387C16.1873 16.3683 16.564 15.459 16.564 14.5108V9.05667C16.5592 8.11487 16.1829 7.21301 15.5169 6.54705C14.851 5.88108 13.9491 5.50482 13.0073 5.5Z"
              fill="#7E8299"/>
    </g>
    <path d="M6.03159 12.7585C6.50747 12.7585 6.89326 12.3727 6.89326 11.8968C6.89326 11.4209 6.50747 11.0352 6.03159 11.0352C5.5557 11.0352 5.16992 11.4209 5.16992 11.8968C5.16992 12.3727 5.5557 12.7585 6.03159 12.7585Z"
          fill="#7E8299"/>
    <path d="M9.2396 12.7585C9.71548 12.7585 10.1013 12.3727 10.1013 11.8968C10.1013 11.4209 9.71548 11.0352 9.2396 11.0352C8.76371 11.0352 8.37793 11.4209 8.37793 11.8968C8.37793 12.3727 8.76371 12.7585 9.2396 12.7585Z"
          fill="#7E8299"/>
    <path d="M12.4388 12.7585C12.9147 12.7585 13.3005 12.3727 13.3005 11.8968C13.3005 11.4209 12.9147 11.0352 12.4388 11.0352C11.9629 11.0352 11.5771 11.4209 11.5771 11.8968C11.5771 12.3727 11.9629 12.7585 12.4388 12.7585Z"
          fill="#7E8299"/>
</svg>
