<svg width="30" height="31" viewBox="0 0 30 31" fill="none" xmlns="http://www.w3.org/2000/svg">
    <rect y="0.5" width="30" height="30" rx="6" fill="#F1F1F2"/>
    <path d="M19.3999 14.2815C19.3421 14.2516 19.279 14.2333 19.2142 14.2278C19.1494 14.2223 19.0841 14.2297 19.0222 14.2495C18.9602 14.2693 18.9028 14.3012 18.8532 14.3433C18.8036 14.3854 18.7628 14.4369 18.7332 14.4949L16.1332 19.5015C15.7988 20.1693 15.2287 20.6895 14.5332 20.9615C14.2202 21.0776 13.8862 21.1263 13.553 21.1045C13.2199 21.0826 12.8951 20.9908 12.5999 20.8349C12.305 20.6786 12.047 20.4608 11.8435 20.1963C11.6399 19.9318 11.4955 19.6266 11.4199 19.3015C11.2392 18.5841 11.3269 17.8254 11.6665 17.1682L13.4132 13.8349L14.8599 11.0549C15.0896 10.5925 15.4845 10.2332 15.9665 10.0482C16.1794 9.96018 16.4089 9.91936 16.6391 9.92857C16.8693 9.93778 17.0947 9.99679 17.2999 10.1015C17.4994 10.2099 17.6737 10.3591 17.8116 10.5395C17.9494 10.7199 18.0477 10.9273 18.0999 11.1482C18.2245 11.6497 18.158 12.1797 17.9132 12.6349L16.4532 15.4482L15.4199 17.4482C15.2994 17.6878 15.0955 17.8751 14.8465 17.9749C14.7423 18.0241 14.6285 18.0497 14.5132 18.0497C14.3979 18.0497 14.2841 18.0241 14.1799 17.9749C13.9707 17.843 13.8219 17.634 13.7657 17.3931C13.7096 17.1523 13.7506 16.899 13.8799 16.6882L15.7532 13.0815C15.807 12.9648 15.8137 12.8318 15.772 12.7102C15.7303 12.5887 15.6434 12.4878 15.5293 12.4286C15.4152 12.3694 15.2827 12.3565 15.1593 12.3924C15.0359 12.4283 14.931 12.5104 14.8665 12.6215L12.9999 16.1682C12.8706 16.3905 12.7868 16.6363 12.7533 16.8914C12.7199 17.1464 12.7375 17.4055 12.8051 17.6536C12.8727 17.9018 12.989 18.134 13.1472 18.3368C13.3054 18.5396 13.5023 18.7089 13.7265 18.8349C13.9724 18.9672 14.2474 19.036 14.5265 19.0349C14.7548 19.0356 14.9811 18.9926 15.1932 18.9082C15.6921 18.7199 16.1001 18.3478 16.3332 17.8682L17.5865 15.4482L18.8199 13.0682C19.1791 12.3936 19.2764 11.6102 19.0932 10.8682C19.007 10.5125 18.8457 10.1794 18.6201 9.89114C18.3946 9.60291 18.11 9.36624 17.7854 9.19703C17.4609 9.02782 17.1039 8.92997 16.7385 8.91005C16.373 8.89013 16.0075 8.9486 15.6665 9.08154C14.9413 9.35111 14.3423 9.8811 13.9865 10.5682L13.2132 12.0549L10.7999 16.7215C10.3331 17.5987 10.2095 18.6182 10.4532 19.5815C10.5644 20.0418 10.7723 20.473 11.0631 20.8466C11.3539 21.2202 11.721 21.5276 12.1399 21.7482C12.6127 21.9876 13.1366 22.1088 13.6665 22.1015C14.0927 22.0984 14.5148 22.0194 14.9132 21.8682C15.8187 21.4992 16.5599 20.8148 16.9999 19.9415L19.5865 14.9549C19.6495 14.8405 19.6652 14.706 19.6303 14.5802C19.5955 14.4544 19.5128 14.3472 19.3999 14.2815Z"
          fill="#A1A5B7"/>
</svg>
