<svg width="16" height="16" viewBox="0 0 16 16" fill="none" xmlns="http://www.w3.org/2000/svg">
    <path d="M14 3.3335H11.3333L10.6667 2.00016C10.5 1.72683 10.2267 1.5335 9.91333 1.46683C9.6 1.40016 9.27333 1.46683 9 1.64016L7 2.66683L5 1.64016C4.72667 1.46683 4.4 1.40016 4.08667 1.46683C3.77333 1.5335 3.5 1.72683 3.33333 2.00016L2.66667 3.3335H2C1.82333 3.3335 1.65333 3.40016 1.52667 3.52683C1.4 3.6535 1.33333 3.82683 1.33333 4.00016C1.33333 4.1735 1.4 4.34683 1.52667 4.4735C1.65333 4.60016 1.82333 4.66683 2 4.66683H14C14.1767 4.66683 14.3467 4.60016 14.4733 4.4735C14.6 4.34683 14.6667 4.1735 14.6667 4.00016C14.6667 3.82683 14.6 3.6535 14.4733 3.52683C14.3467 3.40016 14.1767 3.3335 14 3.3335Z"
          fill="#EF4444"/>
    <path d="M2.66699 5.3335C2.66699 5.15683 2.73366 4.98683 2.86033 4.86016C2.98699 4.7335 3.15699 4.66683 3.33366 4.66683H12.667C12.8437 4.66683 13.0137 4.7335 13.1403 4.86016C13.267 4.98683 13.3337 5.15683 13.3337 5.3335V12.6668C13.3337 13.2402 13.1137 13.7868 12.727 14.1735C12.3403 14.5602 11.8203 14.7668 11.267 14.7668H4.73366C4.18033 14.7668 3.66033 14.5602 3.27366 14.1735C2.88699 13.7868 2.66699 13.2402 2.66699 12.6668V5.3335ZM5.33366 12.6668H6.00033C6.17699 12.6668 6.347 12.6002 6.47366 12.4735C6.60033 12.3468 6.66699 12.1768 6.66699 12.0002V7.3335C6.66699 7.15683 6.60033 6.98683 6.47366 6.86016C6.347 6.7335 6.17699 6.66683 6.00033 6.66683H5.33366C5.15699 6.66683 4.98699 6.7335 4.86033 6.86016C4.73366 6.98683 4.66699 7.15683 4.66699 7.3335V12.0002C4.66699 12.1768 4.73366 12.3468 4.86033 12.4735C4.98699 12.6002 5.15699 12.6668 5.33366 12.6668ZM10.0003 12.6668H10.667C10.8437 12.6668 11.0137 12.6002 11.1403 12.4735C11.267 12.3468 11.3337 12.1768 11.3337 12.0002V7.3335C11.3337 7.15683 11.267 6.98683 11.1403 6.86016C11.0137 6.7335 10.8437 6.66683 10.667 6.66683H10.0003C9.82366 6.66683 9.65366 6.7335 9.52699 6.86016C9.40033 6.98683 9.33366 7.15683 9.33366 7.3335V12.0002C9.33366 12.1768 9.40033 12.3468 9.52699 12.4735C9.65366 12.6002 9.82366 12.6668 10.0003 12.6668Z"
          fill="#EF4444"/>
</svg>
